<?xml version="1.0" encoding="utf-8"?>
<!-- Generator: Adobe Illustrator 22.1.0, SVG Export Plug-In . SVG Version: 6.00 Build 0)  -->
<svg version="1.1" id="Layer_1" xmlns="http://www.w3.org/2000/svg" xmlns:xlink="http://www.w3.org/1999/xlink" x="0px" y="0px"
	 viewBox="0 0 2105 512" style="enable-background:new 0 0 2105 512;" xml:space="preserve">
<style type="text/css">
	.st0{fill:none;}
	.st1{font-family:'Syncopate-Bold';}
	.st2{font-size:130px;}
	.st3{font-family:'Montserrat-Thin';}
	.st4{font-size:72px;}
</style>
<g>
	<g>
		<path d="M38,366.2l213.3,106.7c3,1.5,6.5,1.5,9.5,0l213.3-106.7c3.6-1.8,5.9-5.5,5.9-9.5l0-64c0-3.7-1.9-7.1-5.1-9.1
			c-3.1-1.9-7.1-2.1-10.4-0.5L256.1,387.4L47.5,283.2c-1.5-0.7-3.2-1.1-4.8-1.1c-1.9,0-3.9,0.5-5.6,1.6c-3.1,1.9-5.1,5.4-5.1,9.1
			l0,64C32.1,360.7,34.3,364.4,38,366.2z"/>
		<path d="M38,261.9l213.3,106.7c3,1.5,6.5,1.5,9.5,0l213.3-106.7c3.6-1.8,5.9-5.5,5.9-9.5l0-64c0-3.7-1.9-7.1-5.1-9.1
			c-3.1-1.9-7.1-2.1-10.4-0.5L256.1,283.1L47.5,178.8c-1.5-0.7-3.2-1.1-4.8-1.1c-1.9,0-3.9,0.5-5.6,1.6c-3.1,1.9-5.1,5.4-5.1,9.1
			l0,64C32.1,256.4,34.3,260.1,38,261.9z"/>
	</g>
	<path d="M38,155.9l213.3,106.7c3,1.5,6.5,1.5,9.5,0l213.3-106.7c3.6-1.8,5.9-5.5,5.9-9.5l0-64c0-3.7-1.9-7.1-5.1-9.1
		c-3.1-1.9-7.1-2.1-10.4-0.5L256.1,177.1L47.5,72.8c-1.5-0.7-3.2-1.1-4.8-1.1c-1.9,0-3.9,0.5-5.6,1.6c-3.1,1.9-5.1,5.4-5.1,9.1l0,64
		C32.1,150.4,34.3,154.1,38,155.9z"/>
	<rect x="546.8" y="130.7" class="st0" width="1479.3" height="104"/>
	<text transform="matrix(1 0 0 1 546.835 217.9241)" class="st1 st2">NACHO JIMENEZ</text>
	<rect x="546.8" y="267.7" class="st0" width="1110.2" height="104"/>
	<text transform="matrix(1 0 0 1 546.8351 321.1137)" class="st3 st4">FRONTEND DEVELOPER</text>
</g>
</svg>
