<svg xmlns="http://www.w3.org/2000/svg" viewBox="0 0 936.15 214.65"><defs><style>.a{font-size:130px;font-family:Syncopate-Bold, Syncopate;letter-spacing:0.2em;}.a,.b{font-weight:700;}.b{font-size:72px;font-family:Montserrat-Bold, Montserrat;letter-spacing:1em;}.c{letter-spacing:0.99em;}.d{fill:#30f;}</style></defs><title>NachoDevAzul</title><path d="M471.83,79.27,365.16,25.94a5.34,5.34,0,0,0-4.77,0L253.73,79.27a5.34,5.34,0,0,0-3,4.77v32a5.33,5.33,0,0,0,7.71,4.77L362.76,68.67,467,120.81a5.53,5.53,0,0,0,2.4.57,5.33,5.33,0,0,0,5.33-5.34V84A5.36,5.36,0,0,0,471.83,79.27Z"/><text class="a" transform="translate(501.55 108.61)">CHO </text><text class="b" transform="translate(359.64 206.8)">D<tspan class="c" x="131.4" y="0">E</tspan><tspan x="250.92" y="0">V</tspan></text><path class="d" d="M2.94,91.48l106.67,53.33a5.34,5.34,0,0,0,4.77,0L221.05,91.48A5.34,5.34,0,0,0,224,86.71v-32A5.33,5.33,0,0,0,216.29,50L112,102.08,7.73,50A5.34,5.34,0,0,0,0,54.71v32A5.33,5.33,0,0,0,2.94,91.48Z"/><path class="d" d="M2.94,43.48,109.61,96.82a5.4,5.4,0,0,0,4.77,0L221.05,43.48A5.32,5.32,0,0,0,224,38.72v-32A5.33,5.33,0,0,0,216.29,2L112,54.09,7.73,2A5.34,5.34,0,0,0,0,6.72v32A5.33,5.33,0,0,0,2.94,43.48Z"/></svg>