<svg xmlns="http://www.w3.org/2000/svg" viewBox="0 0 800.36 131.76"><defs><style>.a{fill:#30f;}.b,.c,.d,.e{isolation:isolate;}.b{font-size:67.15px;letter-spacing:0.2em;}.b,.d,.e{font-family:Syncopate-Bold, Syncopate;font-weight:700;}.d,.e{font-size:37.19px;}.d{letter-spacing:1em;}.e{letter-spacing:0.99em;}</style></defs><title>Nachodev</title><path class="a" d="M547.26,52.47V69a2.76,2.76,0,0,1-2.75,2.75,2.82,2.82,0,0,1-1.24-.29L489.54,44.55,435.81,71.42a2.75,2.75,0,0,1-4-2.46V52.47A2.72,2.72,0,0,1,433.35,50l55-27.49a2.78,2.78,0,0,1,2.45,0L545.8,50A2.72,2.72,0,0,1,547.26,52.47Z"/><text class="b" transform="translate(560.32 71.54)">CHO</text><g class="c"><text class="d" transform="translate(480.6 122.26)">D</text><text class="e" transform="translate(548.47 122.26)">E</text><text class="d" transform="translate(610.21 122.26)">V</text></g><path d="M400.08,74.19,369.76,43.32V74.19H357.62V29.25H370.8l30.36,31v-31h12.07V74.19Z"/><path class="a" d="M2.63,80.45l95.24,47.61a4.74,4.74,0,0,0,4.25,0l95.24-47.61A4.75,4.75,0,0,0,200,76.19V47.62a4.77,4.77,0,0,0-6.89-4.26L100,89.91,6.9,43.36a4.85,4.85,0,0,0-2.14-.51,4.72,4.72,0,0,0-2.5.72,4.77,4.77,0,0,0-2.26,4V76.19A4.77,4.77,0,0,0,2.63,80.45Z"/><path class="a" d="M2.63,37.59,97.87,85.21a4.74,4.74,0,0,0,4.25,0l95.24-47.62A4.75,4.75,0,0,0,200,33.33V4.76a4.77,4.77,0,0,0-2.26-4A4.83,4.83,0,0,0,193.11.5L100,47.06,6.9.5A4.84,4.84,0,0,0,4.76,0,4.76,4.76,0,0,0,0,4.76V33.33A4.77,4.77,0,0,0,2.63,37.59Z"/></svg>